<svg xmlns="http://www.w3.org/2000/svg" xmlns:xlink="http://www.w3.org/1999/xlink" width="450" zoomAndPan="magnify" viewBox="0 0 337.5 525.000007" height="700" preserveAspectRatio="xMidYMid meet" version="1.0"><path fill="white" d="M 148.226562 447.121094 C 176.734375 378.683594 169.460938 183.207031 174.769531 91.757812 C 204.261719 130.894531 304.539062 254.59375 251.058594 325.191406 C 241.816406 337.386719 234.933594 341.515625 226.675781 350.167969 C 237.6875 358.230469 258.332031 331.09375 264.820312 323.226562 C 272.882812 313.589844 283.695312 292.941406 289.792969 277.601562 C 333.441406 167.472656 227.070312 111.820312 185.191406 51.050781 C 155.5 7.984375 174.375 6.605469 155.894531 7.394531 C 152.355469 15.0625 150.390625 39.839844 150.191406 48.101562 L 152.945312 177.503906 L 151.765625 312.605469 L 147.832031 367.671875 C 116.964844 364.523438 72.136719 370.421875 46.96875 389.304688 C 14.722656 413.6875 3.320312 453.414062 21.800781 477.800781 C 51.292969 517.128906 132.300781 485.46875 148.226562 447.121094 Z M 148.226562 447.121094 " fill-opacity="1" fill-rule="evenodd"/></svg>